<?xml version="1.0" standalone="no"?>
<!DOCTYPE svg PUBLIC "-//W3C//DTD SVG 20010904//EN"
 "http://www.w3.org/TR/2001/REC-SVG-20010904/DTD/svg10.dtd">
<svg version="1.0" xmlns="http://www.w3.org/2000/svg"
 width="400.000000pt" height="400.000000pt" viewBox="0 0 400.000000 400.000000"
 preserveAspectRatio="xMidYMid meet">

<g transform="translate(0.000000,400.000000) scale(0.100000,-0.100000)"
fill="#000000" stroke="none">
<path d="M1753 3989 c-18 -5 -35 -14 -38 -19 -3 -6 -11 -10 -16 -10 -6 0 -7 5
-4 10 9 14 -2 12 -29 -5 -18 -12 -29 -13 -54 -4 -22 7 -36 7 -51 0 -11 -6 -35
-11 -55 -11 -19 0 -79 -17 -133 -38 -78 -31 -104 -37 -123 -30 -38 15 -61 18
-55 8 3 -5 0 -10 -7 -13 -7 -2 -3 -2 10 0 12 2 22 -1 22 -7 0 -11 -30 -13 -54
-4 -21 8 -20 21 2 27 14 4 13 5 -4 6 -11 0 -31 -11 -45 -26 -21 -23 -22 -25
-4 -19 19 7 19 6 3 -10 -10 -10 -35 -17 -68 -19 -37 -2 -58 -9 -75 -25 -13
-12 -30 -20 -37 -17 -10 4 -10 6 0 6 6 1 12 6 12 12 0 8 -4 8 -15 -1 -8 -6
-13 -17 -12 -22 1 -6 -4 -13 -12 -16 -8 -3 -11 0 -7 7 4 6 5 11 2 11 -9 0 -96
-83 -96 -91 0 -5 -11 -24 -24 -44 -34 -49 -42 -107 -22 -150 9 -19 20 -36 25
-39 9 -6 7 -59 -4 -96 -4 -14 -8 -37 -8 -53 0 -23 -3 -26 -20 -21 -13 4 -17 2
-13 -5 4 -6 0 -11 -8 -11 -9 0 -16 -4 -16 -8 0 -5 -9 -19 -19 -31 -22 -25 -17
-56 6 -47 8 3 21 6 29 6 9 0 14 7 12 18 -2 13 4 17 29 18 41 0 56 14 17 15
l-29 1 29 10 c24 9 31 8 41 -6 7 -9 21 -16 31 -16 16 0 17 2 4 10 -13 9 -13
11 -1 19 8 5 20 7 28 4 17 -7 65 5 59 15 -2 4 18 5 45 4 27 -2 49 -7 49 -12 0
-4 15 -10 33 -13 25 -4 36 0 49 16 16 20 17 21 36 4 21 -19 48 -22 57 -7 6 9
51 7 113 -6 17 -3 21 -1 16 7 -5 8 1 10 21 7 19 -4 33 0 47 14 18 18 21 18 37
4 10 -9 26 -13 39 -9 14 3 22 1 22 -7 0 -6 6 -10 13 -7 6 2 32 -2 57 -9 25 -8
60 -14 78 -14 17 0 32 -4 32 -10 0 -5 5 -10 11 -10 5 0 7 5 4 10 -3 6 3 10 14
10 12 0 20 -5 19 -12 -2 -8 13 -12 45 -12 26 0 47 -4 47 -9 0 -14 24 -34 37
-29 15 4 43 -21 43 -39 0 -10 3 -10 12 -1 17 17 25 15 31 -10 5 -19 8 -20 23
-7 16 13 17 12 12 -8 -5 -19 -2 -23 17 -23 31 0 42 -18 20 -34 -16 -11 -15
-14 11 -31 16 -11 32 -19 36 -18 3 1 6 -14 5 -34 -1 -31 -2 -33 -11 -14 -5 12
-14 20 -20 18 -16 -5 -14 -67 2 -67 7 0 15 -7 18 -15 4 -8 10 -13 14 -10 5 3
19 1 32 -4 22 -9 22 -10 -6 -10 -24 -1 -27 -3 -16 -16 10 -12 10 -19 -2 -33
-8 -9 -15 -30 -16 -46 -1 -17 -8 -33 -14 -37 -7 -5 -11 -24 -10 -46 3 -33 -1
-42 -27 -61 -36 -26 -40 -42 -11 -42 21 0 27 -15 10 -25 -6 -4 -18 -1 -26 6
-13 10 -17 10 -25 -2 -13 -21 -11 -39 6 -39 8 0 15 -9 15 -20 0 -11 5 -20 11
-20 7 0 9 10 5 25 -4 14 -3 25 1 26 30 3 47 9 54 21 5 7 9 9 10 3 4 -33 3 -41
-10 -51 -13 -10 -13 -14 0 -27 14 -13 17 -13 28 4 13 21 31 17 31 -7 0 -8 -9
-23 -21 -35 -22 -22 -35 -79 -19 -79 19 0 10 -15 -23 -39 -26 -19 -28 -22 -9
-18 12 3 22 1 22 -3 0 -12 -44 -55 -67 -65 -15 -7 -14 -9 12 -15 l30 -6 -30
-11 -30 -11 30 -3 c30 -2 30 -2 -5 -8 -29 -5 -36 -11 -38 -33 -4 -32 -8 -34
-28 -13 -33 32 -43 13 -21 -39 l13 -30 22 22 c26 26 44 29 35 7 -3 -9 2 -22
12 -29 17 -12 17 -13 -4 -19 -11 -3 -21 -12 -21 -21 0 -11 -9 -16 -30 -16 -19
0 -30 5 -30 14 0 7 -7 19 -15 26 -9 7 -14 19 -11 26 2 6 -4 14 -15 17 -11 3
-24 19 -30 36 -10 29 -29 43 -29 21 0 -5 -4 -10 -10 -10 -5 0 -10 6 -10 13 0
6 -26 29 -57 51 -44 29 -69 39 -107 42 -31 2 -55 9 -62 19 -6 8 -20 15 -30 15
-11 0 -26 9 -34 20 -8 11 -20 20 -27 20 -7 0 -13 3 -13 8 0 4 -10 13 -21 21
-18 11 -23 11 -30 -1 -6 -9 -11 -10 -16 -2 -10 14 -138 25 -150 13 -14 -14
-93 -20 -114 -8 -15 7 -36 5 -87 -11 -37 -12 -75 -26 -84 -31 -10 -5 -27 -9
-37 -9 -11 0 -23 -5 -26 -11 -4 -6 -13 -8 -21 -5 -11 4 -13 -1 -8 -21 9 -33
-13 -23 -27 13 -7 21 -12 23 -29 14 -12 -6 -26 -9 -33 -7 -7 2 -17 -3 -24 -12
-11 -14 -12 -14 -13 2 0 10 -4 16 -8 13 -5 -3 -19 6 -33 20 -13 14 -36 38 -50
52 -14 15 -28 35 -32 44 -3 10 -11 18 -18 18 -6 0 -9 7 -5 15 4 10 -1 15 -14
15 -12 0 -17 5 -14 13 3 8 -14 31 -37 52 -27 24 -43 48 -44 64 -1 14 -5 41 -9
58 l-8 33 -56 -66 c-35 -40 -59 -77 -62 -97 l-5 -32 -174 3 -173 3 5 -233 c5
-250 16 -315 62 -388 40 -64 137 -127 233 -151 39 -9 52 -17 52 -31 0 -22 16
-24 28 -2 5 9 13 15 18 15 5 0 9 5 9 12 0 22 33 60 46 52 7 -5 10 -4 5 3 -3 6
5 19 20 31 14 11 52 54 85 96 33 42 67 79 75 82 7 3 11 10 7 16 -4 6 0 8 10 4
9 -3 18 -1 20 6 6 15 26 -59 38 -137 18 -119 53 -258 66 -263 7 -3 13 -11 13
-18 0 -7 17 -28 37 -46 32 -28 38 -39 41 -80 2 -40 -1 -50 -18 -59 -24 -13
-60 -5 -120 26 -26 13 -70 25 -103 27 -53 5 -58 3 -54 -13 6 -22 -29 -31 -81
-23 -59 10 -129 96 -139 170 -9 69 -22 31 -34 -99 -5 -61 -11 -114 -14 -116
-2 -2 -16 9 -31 24 -18 20 -28 25 -31 16 -8 -22 -47 -53 -60 -48 -7 3 -18 -3
-25 -12 -7 -9 -20 -18 -28 -20 -8 -2 -21 -11 -29 -20 -13 -16 -13 -16 -7 2 5
15 2 17 -14 13 -13 -3 -23 0 -27 9 -4 11 -15 13 -37 10 -17 -3 -25 -3 -18 0 6
3 10 10 6 15 -17 29 -23 -10 -24 -176 l0 -184 57 27 c95 45 100 50 123 97 12
24 41 67 66 94 24 27 44 53 44 58 0 6 10 18 21 29 l21 19 -8 -45 c-11 -55 -12
-134 -2 -176 5 -24 2 -37 -12 -55 -11 -12 -20 -25 -20 -28 1 -15 26 -37 38
-34 6 3 12 0 12 -5 0 -6 -10 -13 -22 -15 -21 -4 -20 -4 3 -6 29 -1 39 -17 39
-62 0 -17 4 -28 10 -24 6 3 7 -1 4 -9 -8 -21 -21 -20 -33 2 -6 9 -11 12 -11 5
0 -6 5 -15 11 -18 6 -4 8 -13 5 -21 -3 -7 2 -17 11 -22 10 -6 13 -16 8 -31 -6
-21 -7 -21 -20 -4 -13 17 -14 16 -8 -7 3 -14 9 -29 13 -35 4 -5 10 -23 13 -40
l6 -30 -13 29 c-9 20 -16 25 -21 16 -4 -7 -2 -16 5 -20 16 -10 7 -78 -16 -121
-8 -16 -10 -29 -5 -29 5 0 12 7 15 16 3 8 10 13 15 9 6 -3 7 -13 4 -22 -4 -11
-3 -14 5 -9 8 5 10 2 5 -9 -3 -10 0 -20 7 -25 9 -6 7 -18 -8 -54 -12 -25 -17
-46 -11 -46 12 0 12 -37 -1 -45 -6 -3 -10 -15 -10 -26 0 -14 9 -21 30 -25 27
-6 50 -37 36 -51 -3 -4 -6 1 -6 10 0 9 -5 17 -11 17 -6 0 -8 -9 -4 -20 4 -12
2 -20 -5 -20 -8 0 -9 -10 -5 -29 5 -26 3 -29 -25 -34 -16 -4 -44 -4 -61 0 -25
5 -31 3 -27 -8 3 -9 25 -16 59 -19 53 -6 53 -6 14 -10 -28 -4 -41 -10 -43 -22
-2 -11 3 -18 12 -18 9 0 16 -6 16 -14 0 -8 6 -17 13 -20 6 -3 3 -4 -7 -3 -29
3 -31 -21 -1 -29 23 -6 24 -8 9 -19 -15 -11 -14 -13 10 -19 35 -9 510 -6 499
3 -11 10 -104 34 -126 33 -13 -1 -17 4 -13 14 4 11 1 14 -13 9 -29 -9 -36 33
-8 45 12 5 16 9 8 9 -8 1 -12 3 -9 6 3 3 13 3 22 -1 15 -6 15 -7 -1 -20 -16
-12 -15 -13 12 -14 23 0 27 -3 15 -10 -19 -13 -8 -13 24 0 25 9 32 1 27 -32
-1 -11 13 -10 25 1 18 17 59 20 78 6 11 -8 16 -18 12 -22 -4 -4 -11 -1 -16 6
-4 8 -15 11 -24 8 -14 -6 -14 -9 5 -28 17 -17 23 -19 31 -8 7 11 11 11 15 2 6
-15 43 -17 43 -3 0 6 5 10 11 10 5 0 7 -4 4 -10 -4 -6 182 -9 520 -9 345 0
524 3 520 9 -4 6 -11 8 -16 5 -5 -4 -9 -2 -9 4 0 5 9 13 20 16 11 3 20 12 20
20 0 8 7 11 21 8 14 -4 20 -1 18 8 -4 26 20 71 36 66 9 -4 12 -1 8 10 -3 8 -1
18 4 22 6 3 31 46 56 96 48 97 61 125 66 153 1 4 6 0 11 -8 6 -9 10 -10 10 -3
0 6 -4 14 -9 18 -6 3 -4 17 5 33 7 15 14 34 14 43 0 9 8 27 19 40 29 37 61 98
61 115 0 9 6 30 14 47 24 54 102 313 120 399 5 20 20 33 69 56 45 21 77 45
111 85 29 34 58 58 76 62 16 3 31 13 34 21 8 20 27 18 24 -3 -2 -10 2 -18 7
-19 6 0 18 -4 28 -9 28 -12 31 1 13 48 -17 46 -14 69 14 102 31 36 32 55 5 65
-29 11 -31 20 -10 60 9 17 15 31 15 32 -1 2 1 10 4 18 2 8 11 37 20 64 10 32
16 86 16 150 0 91 -2 104 -23 130 -21 26 -23 34 -14 80 6 28 13 53 17 56 3 3
15 41 27 85 11 44 31 116 43 160 53 195 61 258 75 558 2 53 7 102 11 108 3 6
0 15 -7 20 -12 7 -11 9 1 9 13 0 13 1 0 10 -12 7 -12 10 -1 10 8 0 11 6 7 16
-3 8 -1 24 4 34 7 14 6 21 -4 27 -16 9 -26 71 -27 163 -1 46 -7 74 -21 97 -11
18 -17 37 -14 42 3 5 -10 21 -30 36 -20 15 -42 43 -50 61 -8 19 -20 34 -27 34
-15 0 -123 102 -147 138 -8 12 -21 20 -28 17 -8 -3 -23 2 -35 11 -22 15 -21
15 7 8 21 -5 27 -4 22 5 -4 6 -25 14 -47 17 -21 4 -39 10 -39 15 0 5 -7 9 -14
9 -15 0 -98 41 -120 59 -6 5 -26 12 -43 16 -18 3 -33 10 -33 15 0 4 -18 15
-39 23 -22 9 -42 21 -45 26 -4 6 -40 10 -80 9 -70 0 -137 14 -164 35 -6 5 -25
7 -42 4 -16 -4 -32 -2 -35 3 -4 6 -14 5 -26 -3 -14 -8 -22 -9 -27 -1 -4 6 -30
11 -59 12 -28 0 -60 2 -70 5 -10 3 -32 1 -50 -4z m-703 -194 c0 -8 -6 -15 -14
-15 -8 0 -23 -3 -33 -6 -14 -4 -13 -1 6 15 27 25 41 27 41 6z m-123 -51 c-3
-3 -12 -4 -19 -1 -8 3 -5 6 6 6 11 1 17 -2 13 -5z m203 -419 c0 -8 -7 -15 -15
-15 -8 0 -15 7 -15 15 0 8 7 15 15 15 8 0 15 -7 15 -15z m220 -35 c-8 -5 -19
-10 -25 -10 -5 0 -3 5 5 10 8 5 20 10 25 10 6 0 3 -5 -5 -10z m-495 -10 c-3
-5 -12 -10 -20 -10 -8 0 -17 5 -20 10 -4 6 5 10 20 10 15 0 24 -4 20 -10z
m1270 -319 c3 -5 1 -12 -4 -15 -5 -3 -11 1 -15 9 -6 16 9 21 19 6z m15 -391
c0 -5 -5 -10 -11 -10 -5 0 -7 5 -4 10 3 6 8 10 11 10 2 0 4 -4 4 -10z m-1970
-152 c0 -9 17 -13 48 -14 44 -1 152 -40 152 -55 0 -4 -10 -9 -23 -13 -15 -3
-23 -13 -23 -28 0 -35 20 -48 75 -48 l51 0 0 -39 c0 -22 -6 -46 -13 -53 -15
-15 -22 -88 -8 -88 5 0 11 6 14 13 3 9 8 9 16 1 12 -11 4 -37 -33 -104 -27
-48 -45 -105 -52 -162 -5 -48 -10 -58 -25 -58 -11 0 -19 7 -20 18 0 10 -3 12
-6 5 -7 -18 -16 -16 -31 8 -10 16 -10 24 -1 35 9 11 8 14 -9 14 -26 0 -36 -36
-14 -51 14 -8 12 -9 -8 -4 -14 4 -32 15 -40 24 -9 10 -22 15 -29 13 -8 -3 -11
0 -7 6 3 6 -5 19 -19 29 -13 10 -26 29 -29 43 -2 14 -9 24 -15 22 -10 -2 -28
52 -23 71 1 4 -3 7 -9 7 -7 0 -9 10 -5 26 4 16 3 23 -3 20 -5 -4 -10 2 -11 11
-11 227 -3 330 28 339 9 3 24 9 32 14 22 13 40 12 40 -2z m374 -147 c-2 -3
-12 3 -22 13 -16 17 -16 18 5 5 12 -7 20 -15 17 -18z m295 -21 c6 0 11 -4 11
-10 0 -5 -16 -10 -36 -10 -21 0 -33 4 -29 10 3 6 -1 10 -9 10 -9 0 -16 5 -16
11 0 6 7 9 15 6 8 -4 17 -1 21 5 5 7 11 6 19 -5 7 -10 17 -17 24 -17z m616
-40 c-3 -5 -1 -10 4 -10 6 0 11 5 11 10 0 16 76 12 90 -5 7 -8 20 -15 30 -15
24 0 46 -27 28 -33 -7 -2 -3 -2 10 0 12 2 22 -1 22 -7 0 -5 16 -10 35 -10 33
0 34 -1 29 -29 -6 -30 1 -39 37 -46 28 -6 35 -13 23 -25 -12 -12 -104 20 -222
77 -42 21 -52 10 -19 -21 15 -14 27 -27 27 -30 0 -2 -19 -2 -42 1 -55 7 -122
43 -108 57 7 7 13 7 18 1 4 -6 22 -15 40 -22 29 -10 32 -10 22 3 -9 10 -9 14
-1 14 24 0 9 17 -25 29 -27 10 -33 16 -23 22 11 7 9 9 -7 9 -30 0 -36 11 -16
26 20 16 46 18 37 4z m-905 -40 c0 -5 -4 -10 -10 -10 -5 0 -10 5 -10 10 0 6 5
10 10 10 6 0 10 -4 10 -10z m479 -35 c12 -7 12 -10 0 -19 -8 -6 -16 -22 -17
-35 -3 -20 0 -23 20 -18 84 19 88 19 81 0 -3 -10 -10 -23 -15 -30 -5 -6 -5
-14 0 -17 10 -6 9 -36 -2 -54 -4 -6 -3 -12 3 -12 5 0 12 6 15 13 5 9 7 9 12
-1 3 -7 12 -19 21 -27 8 -8 10 -15 4 -15 -20 0 -11 -45 12 -60 40 -26 69 -40
83 -40 8 0 14 -4 14 -10 0 -5 21 -16 48 -24 26 -8 61 -20 77 -27 17 -7 51 -13
76 -14 26 -2 52 -6 58 -9 18 -11 13 -65 -15 -160 -44 -149 -78 -186 -174 -186
-125 0 -385 104 -425 169 -4 8 12 0 37 -17 25 -17 58 -34 74 -38 25 -5 22 -2
-18 25 -33 23 -45 37 -42 49 5 13 4 14 -4 3 -8 -11 -13 -11 -29 5 -37 37 -43
68 -36 201 5 120 4 130 -17 166 -12 20 -25 37 -29 37 -5 0 -16 15 -26 33 -21
39 -15 77 16 108 19 19 30 21 103 17 45 -2 88 -8 95 -13z m206 -15 c42 -17 44
-19 15 -14 -42 8 -101 32 -80 33 8 1 38 -8 65 -19z m535 -10 c0 -5 -2 -10 -4
-10 -3 0 -8 5 -11 10 -3 6 -1 10 4 10 6 0 11 -4 11 -10z m272 -5 c0 -5 -5 -11
-11 -13 -6 -2 -11 4 -11 13 0 9 5 15 11 13 6 -2 11 -8 11 -13z m35 -31 c-3 -3
-12 -4 -19 -1 -8 3 -5 6 6 6 11 1 17 -2 13 -5z m-17 -24 c0 -5 -13 -10 -30
-10 -16 0 -30 5 -30 10 0 6 14 10 30 10 17 0 30 -4 30 -10z m-774 -85 c21 -32
66 -54 99 -48 12 3 37 18 55 34 31 29 33 29 54 12 53 -44 60 -69 21 -79 -24
-6 -24 -7 -8 -20 19 -14 16 -16 -29 -19 -21 -2 -28 2 -28 16 0 14 -7 19 -27
19 -33 0 -132 46 -155 73 -11 12 -18 35 -17 56 1 33 1 34 9 10 4 -14 16 -38
26 -54z m-76 50 c0 -8 -4 -15 -10 -15 -5 0 -10 7 -10 15 0 8 5 15 10 15 6 0
10 -7 10 -15z m819 -6 c-8 -5 -21 -9 -29 -9 -12 1 -11 4 4 15 10 8 23 12 29 8
5 -3 3 -9 -4 -14z m104 -131 c2 -7 0 -47 -5 -88 -7 -63 -13 -78 -35 -97 -20
-16 -26 -30 -25 -57 1 -20 -3 -36 -8 -36 -6 0 -8 -11 -4 -24 3 -13 1 -27 -5
-30 -6 -4 -11 -2 -11 3 0 6 -5 11 -11 11 -8 0 -7 -6 2 -16 11 -14 10 -19 -9
-34 -12 -10 -22 -23 -22 -29 0 -19 -34 -46 -55 -44 -11 2 -14 0 -7 -3 18 -8
15 -35 -3 -28 -9 4 -16 0 -16 -7 -2 -19 -1 -22 6 -41 5 -11 1 -16 -12 -15 -12
2 -17 -4 -15 -16 2 -10 -7 -31 -18 -47 -12 -17 -19 -34 -16 -38 7 -11 -21 -34
-61 -51 -33 -13 -44 -31 -20 -31 6 -1 -4 -8 -24 -18 -20 -9 -37 -21 -37 -27 0
-5 -14 -17 -32 -27 -24 -12 -38 -14 -52 -7 -12 6 -18 6 -18 -1 0 -18 -20 -11
-21 8 -1 16 -2 16 -6 0 -2 -10 -13 -18 -24 -18 -11 0 -28 -8 -37 -17 -16 -15
-15 -16 15 -10 l31 6 -24 -26 c-13 -14 -24 -30 -24 -34 0 -5 -9 -9 -20 -9 -20
0 -28 -16 -10 -22 6 -2 6 -8 0 -18 -8 -13 -10 -12 -10 3 0 24 -22 17 -37 -13
-10 -20 -11 -21 -15 -4 -3 18 -5 17 -23 -3 -11 -13 -23 -23 -27 -23 -15 0 -8
27 12 45 25 23 10 46 -15 25 -19 -16 -54 -80 -51 -95 0 -5 -10 -12 -24 -13
-14 -2 -31 -8 -37 -14 -9 -7 -14 -6 -17 3 -13 43 -17 50 -25 44 -5 -3 -13 -1
-16 5 -4 6 -16 10 -28 8 -18 -2 -22 2 -20 20 2 12 -2 22 -8 22 -14 0 -39 26
-39 40 0 6 -13 13 -30 17 -16 3 -30 9 -30 14 0 5 -17 20 -37 33 -27 19 -40 23
-50 14 -10 -8 -13 -6 -14 8 -1 17 -2 17 -6 2 -6 -26 -23 -22 -24 5 0 12 -3 16
-6 10 -9 -24 -33 -14 -34 15 0 15 -3 21 -6 15 -8 -20 -22 -15 -16 6 3 10 0 22
-6 25 -7 5 -11 -2 -12 -16 l0 -23 -11 23 c-6 13 -17 21 -24 18 -19 -7 -23 3
-14 35 5 17 5 29 -1 29 -5 0 -9 -4 -9 -8 0 -17 -44 -5 -51 14 -4 10 -8 15 -8
9 -1 -5 -6 -3 -11 5 -6 10 -10 11 -10 3 0 -7 -7 -13 -15 -13 -20 0 -19 10 2
26 13 9 22 9 30 2 7 -6 13 -7 13 -2 -1 12 -50 47 -50 35 0 -5 6 -12 13 -14 8
-4 7 -6 -3 -6 -9 -1 -22 5 -29 12 -11 10 -14 10 -18 0 -6 -17 -32 -17 -29 0 1
7 12 24 24 37 12 13 22 33 22 44 1 20 1 20 14 3 12 -15 14 -15 19 -3 4 9 2 18
-3 21 -15 9 -12 35 5 35 31 0 66 -24 64 -44 -2 -37 1 -46 16 -46 8 0 15 -7 15
-16 0 -13 11 -15 66 -11 46 3 69 9 75 20 5 8 22 18 37 22 26 5 27 9 24 48 -3
23 -9 48 -14 55 -12 14 12 17 27 3 15 -14 153 -59 235 -76 143 -29 226 -17
296 42 18 16 104 181 104 201 0 4 6 19 14 34 8 14 19 42 26 62 6 20 15 36 20
36 5 0 17 16 26 36 9 20 20 31 24 25 4 -8 12 -6 26 4 10 8 27 15 37 15 13 0
17 5 13 18 -4 11 -1 19 6 20 7 1 38 6 68 11 90 14 217 13 223 -1z m542 -38
c-8 -13 1 -13 25 0 18 9 18 8 9 -20 -14 -39 -22 -43 -53 -29 -32 15 -32 22 -3
42 26 19 30 20 22 7z m161 -55 c-4 -19 -11 -33 -16 -30 -7 5 -5 27 6 64 9 28
16 1 10 -34z m31 -27 c-3 -8 -6 -5 -6 6 -1 11 2 17 5 13 3 -3 4 -12 1 -19z
m-231 2 c8 0 14 -7 14 -14 0 -12 -6 -13 -30 -5 -16 6 -30 15 -30 21 0 6 7 7
16 4 9 -3 22 -6 30 -6z m-22 -117 c2 -28 1 -54 -2 -58 -4 -4 -7 -12 -7 -18 0
-5 -9 -11 -20 -12 -11 -2 -28 -6 -37 -10 -22 -9 -23 3 -4 40 9 17 16 22 19 13
2 -7 8 10 11 37 4 28 10 56 12 64 8 26 23 -3 28 -56z m113 -29 c-5 -71 -18
-104 -39 -104 -5 0 -7 8 -4 18 2 9 7 40 11 67 9 71 16 95 28 95 6 0 8 -26 4
-76z m-2332 -148 c8 -13 13 -31 9 -40 -5 -14 -2 -16 18 -11 23 6 25 4 21 -19
-4 -21 -8 -24 -19 -15 -19 15 -26 7 -27 -28 0 -15 -2 -22 -4 -15 -3 6 -9 10
-14 6 -5 -3 -9 2 -9 10 0 8 4 17 9 20 12 8 8 30 -9 52 -14 16 -13 17 4 11 18
-7 18 -6 2 17 -19 29 -20 36 -6 36 5 0 16 -11 25 -24z m2126 -19 c-17 -17 -24
-1 -9 22 11 18 14 19 16 5 2 -9 -1 -21 -7 -27z m139 33 c-20 -13 -50 -13 -50
0 0 6 15 10 33 10 24 0 28 -3 17 -10z m-164 -69 c-9 -14 -43 -14 -51 -1 -8 13
37 31 49 20 4 -5 5 -13 2 -19z m-2436 -81 c0 -5 -2 -10 -4 -10 -3 0 -8 5 -11
10 -3 6 -1 10 4 10 6 0 11 -4 11 -10z m30 -20 c0 -5 -4 -10 -10 -10 -5 0 -10
5 -10 10 0 6 5 10 10 10 6 0 10 -4 10 -10z m2260 -55 c0 -8 -4 -15 -10 -15 -5
0 -10 7 -10 15 0 8 5 15 10 15 6 0 10 -7 10 -15z m-1700 -15 c0 -5 -2 -10 -4
-10 -3 0 -8 5 -11 10 -3 6 -1 10 4 10 6 0 11 -4 11 -10z m1730 -16 c0 -8 -4
-12 -10 -9 -5 3 -10 13 -10 21 0 8 5 12 10 9 6 -3 10 -13 10 -21z m-1750 -14
c8 -5 11 -10 5 -10 -5 0 -17 5 -25 10 -8 5 -10 10 -5 10 6 0 17 -5 25 -10z
m-92 -83 c13 -3 37 -1 53 5 24 8 27 13 18 24 -8 9 -8 14 -1 14 14 0 86 -42 90
-52 2 -5 9 -5 14 -1 7 4 9 -1 6 -13 -4 -16 1 -19 33 -20 47 -2 72 -26 71 -66
0 -16 -3 -32 -5 -35 -3 -2 -43 14 -89 37 -70 34 -92 40 -140 39 -39 -1 -65 3
-82 15 -15 9 -26 13 -27 9 -1 -5 -4 3 -8 17 -5 18 -14 24 -29 23 -26 -3 -27 0
-6 33 l17 24 31 -23 c17 -13 41 -26 54 -30z m-208 -93 c0 -8 -5 -12 -10 -9 -6
4 -8 11 -5 16 9 14 15 11 15 -7z m580 6 c0 -5 -4 -10 -10 -10 -5 0 -10 5 -10
10 0 6 5 10 10 10 6 0 10 -4 10 -10z m710 -15 c0 -8 -4 -15 -10 -15 -5 0 -7 7
-4 15 4 8 8 15 10 15 2 0 4 -7 4 -15z m-743 -51 c-3 -3 -12 -4 -19 -1 -8 3 -5
6 6 6 11 1 17 -2 13 -5z m-197 -109 c0 -13 -4 -14 -22 -4 -34 17 -34 19 -5 19
18 0 27 -5 27 -15z m720 5 c0 -5 -4 -10 -10 -10 -5 0 -10 5 -10 10 0 6 5 10
10 10 6 0 10 -4 10 -10z m-670 -8 c0 -4 -9 -13 -20 -20 -17 -10 -20 -10 -20 6
0 11 8 18 20 19 11 1 20 -1 20 -5z m-360 -22 c0 -5 -5 -10 -11 -10 -5 0 -7 5
-4 10 3 6 8 10 11 10 2 0 4 -4 4 -10z m950 -15 c0 -3 -9 -5 -20 -5 -11 0 -20
7 -20 15 0 13 4 14 20 5 11 -6 20 -13 20 -15z m-514 -12 c-10 -11 -37 -12 -30
-2 3 5 12 9 21 9 9 0 13 -3 9 -7z m484 -23 c0 -5 -4 -10 -10 -10 -5 0 -10 5
-10 10 0 6 5 10 10 10 6 0 10 -4 10 -10z m-897 -449 c-3 -11 -12 -18 -21 -16
-10 2 -19 4 -22 4 -3 1 6 8 20 15 14 8 26 14 27 15 0 1 -1 -8 -4 -18z m27
-123 c0 -5 -4 -8 -10 -8 -5 0 -10 10 -10 23 0 18 2 19 10 7 5 -8 10 -18 10
-22z m-20 -58 c0 -5 -5 -10 -11 -10 -5 0 -7 5 -4 10 3 6 8 10 11 10 2 0 4 -4
4 -10z m50 6 c0 -2 -7 -7 -16 -10 -8 -3 -12 -2 -9 4 6 10 25 14 25 6z m-15
-64 c-9 -9 -35 8 -35 23 0 13 3 12 20 -2 11 -9 17 -19 15 -21z"/>
<path d="M956 2034 c-11 -28 -6 -39 9 -20 8 11 15 23 15 28 0 14 -18 9 -24 -8z"/>
<path d="M1000 2003 c0 -13 5 -23 10 -23 13 0 13 11 0 30 -8 12 -10 11 -10 -7z"/>
<path d="M1070 1989 c0 -5 5 -7 10 -4 6 3 10 8 10 11 0 2 -4 4 -10 4 -5 0 -10
-5 -10 -11z"/>
<path d="M1460 1870 c0 -5 5 -10 11 -10 5 0 7 5 4 10 -3 6 -8 10 -11 10 -2 0
-4 -4 -4 -10z"/>
<path d="M1880 1400 c0 -5 5 -10 10 -10 6 0 10 5 10 10 0 6 -4 10 -10 10 -5 0
-10 -4 -10 -10z"/>
<path d="M760 1260 c0 -5 5 -10 10 -10 6 0 10 5 10 10 0 6 -4 10 -10 10 -5 0
-10 -4 -10 -10z"/>
<path d="M1650 1104 c0 -8 5 -12 10 -9 6 3 10 10 10 16 0 5 -4 9 -10 9 -5 0
-10 -7 -10 -16z"/>
<path d="M1540 1089 c0 -5 5 -7 10 -4 6 3 10 8 10 11 0 2 -4 4 -10 4 -5 0 -10
-5 -10 -11z"/>
<path d="M1460 1049 c0 -5 5 -7 10 -4 6 3 10 8 10 11 0 2 -4 4 -10 4 -5 0 -10
-5 -10 -11z"/>
<path d="M1085 1030 c3 -5 8 -10 11 -10 2 0 4 5 4 10 0 6 -5 10 -11 10 -5 0
-7 -4 -4 -10z"/>
<path d="M1440 959 c0 -5 5 -7 10 -4 6 3 10 8 10 11 0 2 -4 4 -10 4 -5 0 -10
-5 -10 -11z"/>
<path d="M634 3132 c-17 -26 -37 -65 -44 -87 -7 -22 -19 -56 -26 -75 -8 -19
-18 -65 -24 -101 -5 -37 -17 -85 -25 -108 -15 -44 -6 -54 19 -19 11 15 16 18
16 8 1 -8 9 1 19 20 11 19 17 38 15 42 -2 4 4 9 15 13 19 6 36 55 20 55 -5 0
-9 4 -9 10 0 5 7 7 15 4 9 -4 15 0 15 9 0 8 -6 17 -13 20 -18 7 -10 102 10
134 8 12 15 39 16 59 1 30 3 33 13 20 17 -23 21 -20 16 14 -2 17 -7 30 -11 30
-3 0 -20 -22 -37 -48z m0 -46 c-3 -14 -10 -26 -15 -26 -12 0 -11 4 3 35 14 31
21 26 12 -9z"/>
<path d="M720 3164 c0 -8 5 -12 10 -9 6 4 8 11 5 16 -9 14 -15 11 -15 -7z"/>
<path d="M632 3005 c0 -16 2 -22 5 -12 2 9 2 23 0 30 -3 6 -5 -1 -5 -18z"/>
<path d="M657 2993 c-3 -5 -1 -17 3 -28 7 -19 7 -19 18 2 7 12 12 24 12 27 0
9 -28 7 -33 -1z"/>
<path d="M511 2694 c0 -11 3 -14 6 -6 3 7 2 16 -1 19 -3 4 -6 -2 -5 -13z"/>
<path d="M95 1360 c-18 -8 -17 -9 8 -9 15 -1 27 4 27 9 0 12 -8 12 -35 0z"/>
<path d="M2830 1240 c0 -5 5 -10 10 -10 6 0 10 5 10 10 0 6 -4 10 -10 10 -5 0
-10 -4 -10 -10z"/>
<path d="M3010 1171 c0 -26 -9 -77 -20 -112 -11 -34 -19 -67 -17 -73 2 -6 15
28 30 74 27 86 35 160 17 160 -5 0 -10 -22 -10 -49z"/>
<path d="M3660 1050 c21 -7 22 -8 5 -10 -15 -1 -16 -3 -5 -7 16 -7 39 -33 40
-45 0 -4 -19 -12 -42 -19 -36 -10 -40 -13 -23 -20 31 -12 47 -11 39 4 -5 8 -2
8 9 -2 9 -7 17 -20 17 -27 0 -8 11 -19 24 -24 13 -5 27 -14 31 -19 3 -6 15
-11 26 -11 11 0 22 -7 25 -15 3 -8 21 -19 39 -25 18 -6 36 -17 39 -25 3 -8 10
-15 16 -15 13 0 70 -39 87 -60 10 -12 12 3 13 77 l0 91 -83 41 c-46 22 -90 47
-97 56 -7 9 -26 15 -44 13 -34 -2 -80 18 -71 31 2 5 -5 11 -18 15 -33 9 -56 5
-27 -4z"/>
<path d="M3519 1037 c4 -4 25 -3 47 2 l39 9 -47 -1 c-26 -1 -43 -5 -39 -10z"/>
<path d="M3560 1000 c0 -5 7 -10 16 -10 8 0 12 5 9 10 -3 6 -10 10 -16 10 -5
0 -9 -4 -9 -10z"/>
<path d="M3650 1000 c0 -5 7 -10 15 -10 8 0 15 5 15 10 0 6 -7 10 -15 10 -8 0
-15 -4 -15 -10z"/>
<path d="M3600 980 c0 -5 5 -10 10 -10 6 0 10 5 10 10 0 6 -4 10 -10 10 -5 0
-10 -4 -10 -10z"/>
<path d="M2915 738 c-4 -13 -27 -65 -51 -116 -24 -52 -44 -96 -44 -98 0 -3 -9
-25 -21 -50 -11 -25 -18 -53 -16 -62 3 -13 6 -11 14 8 6 14 22 49 36 78 14 29
29 66 32 82 4 17 11 30 16 30 5 0 9 9 9 20 0 10 9 43 20 71 12 28 19 54 16 56
-2 3 -7 -6 -11 -19z"/>
<path d="M2747 353 c-4 -3 -7 -11 -7 -17 0 -6 5 -5 12 2 6 6 9 14 7 17 -3 3
-9 2 -12 -2z"/>
<path d="M2709 308 c-9 -7 -35 -38 -60 -68 -24 -30 -51 -62 -59 -71 -8 -10
-35 -40 -60 -68 -25 -28 -49 -51 -54 -51 -10 0 -35 -30 -36 -42 0 -5 23 -8 50
-8 31 0 50 4 50 12 0 6 18 35 39 63 22 29 37 55 34 59 -4 3 2 6 11 6 10 0 16
6 13 13 -2 6 13 35 32 62 54 74 72 105 63 105 -4 0 -15 -6 -23 -12z"/>
<path d="M331 261 c-7 -5 -12 -14 -10 -20 2 -6 10 -2 17 9 14 22 13 23 -7 11z"/>
<path d="M2369 140 c-61 -61 -114 -108 -118 -106 -4 3 -7 -4 -7 -15 0 -27 30
-24 52 6 13 17 20 21 26 12 5 -8 8 -3 8 12 0 15 15 39 40 62 22 21 40 41 40
45 0 3 12 18 28 32 34 34 56 62 48 62 -3 0 -56 -50 -117 -110z"/>
<path d="M100 190 c0 -5 7 -7 15 -4 8 4 15 8 15 10 0 2 -7 4 -15 4 -8 0 -15
-4 -15 -10z"/>
<path d="M1 95 l0 -95 70 0 c63 0 71 2 79 23 8 19 15 10 11 -15 -2 -13 78 -4
84 9 2 7 -2 13 -10 13 -8 0 -15 5 -15 11 0 6 -7 8 -16 5 -21 -8 -64 19 -64 39
0 8 8 15 18 16 14 0 13 3 -5 16 -27 18 -30 33 -7 33 8 0 12 5 8 11 -3 6 -17 9
-30 6 -13 -2 -29 2 -35 10 -9 11 -15 11 -27 1 -12 -10 -16 -10 -19 0 -3 6 -13
12 -24 12 -17 0 -18 -9 -18 -95z m43 38 c-8 -32 -12 -39 -19 -31 -9 8 6 58 16
58 5 0 6 -12 3 -27z m50 -21 c-20 -5 -39 12 -30 27 4 6 14 4 27 -7 17 -15 18
-17 3 -20z m36 -62 c0 -5 -2 -10 -4 -10 -3 0 -8 5 -11 10 -3 6 -1 10 4 10 6 0
11 -4 11 -10z"/>
<path d="M158 178 c5 -5 16 -8 23 -6 8 3 3 7 -10 11 -17 4 -21 3 -13 -5z"/>
</g>
</svg>
